<?xml version="1.0" standalone="no"?>
<svg version="1.0" xmlns="http://www.w3.org/2000/svg"
 width="3072" height="3072" viewBox="0 0 3072 3072"
 preserveAspectRatio="xMidYMid meet">

<defs>
<linearGradient id="grad" gradientUnits="userSpaceOnUse"
    x1="0" y1="20480" x2="20480" y2="0">
  <stop offset="0" stop-color="#6D28D9"/>
  <stop offset="1" stop-color="#312E81"/>
</linearGradient>
</defs>

<g transform="translate(512,512)">
<g transform="translate(0.000000,2048.000000) scale(0.100000,-0.100000)"
fill="url(#grad)" stroke="none">
<path d="M5932 18159 c-332 -10 -407 -21 -767 -109 -361 -89 -650 -204 -975
-388 -495 -280 -955 -715 -1272 -1202 -156 -239 -332 -602 -412 -845 -86 -263
-162 -581 -188 -785 -9 -72 -12 -1149 -15 -4530 -3 -4407 -3 -4436 17 -4625
24 -222 49 -367 91 -520 121 -439 278 -783 538 -1175 164 -248 330 -443 567
-666 167 -156 240 -214 464 -366 307 -208 621 -363 933 -460 263 -82 314 -96
474 -128 320 -63 50 -60 4818 -60 2527 1 4405 4 4495 10 738 44 1589 401 2157
905 190 169 489 494 598 650 117 167 204 303 240 374 20 41 48 91 61 111 22
33 107 219 185 405 37 88 106 319 158 535 45 182 66 340 76 560 9 203 12 8542
4 8721 -21 413 -135 921 -289 1278 -53 125 -227 452 -304 571 -99 155 -308
428 -408 534 -132 141 -333 324 -469 427 -595 449 -1172 678 -1939 770 -82 9
-1029 12 -4365 13 -2343 1 -4356 -2 -4473 -5z m4948 -2413 c309 -31 676 -97
980 -176 388 -102 883 -293 1207 -469 435 -235 773 -473 1124 -792 470 -426
821 -880 1159 -1500 138 -253 346 -787 424 -1089 156 -603 190 -872 191 -1505
0 -418 -7 -527 -51 -830 -33 -230 -162 -756 -232 -945 -27 -74 -66 -182 -87
-240 -104 -290 -357 -775 -542 -1040 -14 -19 -58 -84 -99 -145 -41 -60 -99
-143 -129 -184 -30 -41 -51 -79 -48 -85 3 -6 65 -105 136 -221 72 -115 194
-316 273 -445 78 -129 188 -309 244 -400 56 -91 128 -208 160 -260 32 -52 100
-165 153 -250 52 -85 171 -281 264 -435 94 -154 192 -315 218 -358 27 -42 46
-80 43 -82 -7 -8 -396 136 -512 189 -28 13 -62 27 -76 31 -24 7 -411 157 -760
295 -427 167 -513 201 -650 253 -168 64 -536 209 -829 326 l-203 82 -107 -59
c-255 -142 -310 -169 -588 -285 -351 -148 -899 -303 -1296 -367 -333 -53 -495
-64 -982 -65 -469 0 -526 3 -875 46 -446 55 -991 201 -1460 392 -308 125 -706
333 -950 496 -380 255 -579 418 -880 720 -337 338 -588 661 -840 1081 -56 93
-305 592 -339 680 -192 498 -329 1031 -375 1466 -52 486 -45 1051 20 1494 56
388 207 928 356 1280 143 335 195 441 346 695 241 405 467 704 756 1002 647
668 1382 1130 2256 1419 496 164 981 258 1550 298 149 10 893 -3 1050 -18z"/>
<path d="M9925 13699 c-1244 -117 -2318 -874 -2844 -2004 -85 -183 -194 -505
-239 -705 -108 -476 -108 -1029 0 -1525 41 -190 140 -487 227 -680 75 -165
224 -426 335 -586 321 -460 748 -835 1244 -1092 206 -106 301 -146 526 -222
350 -118 677 -169 1071 -169 264 0 410 14 671 65 400 78 780 229 1158 462 234
143 429 302 646 523 466 477 767 1032 918 1694 117 509 108 1125 -23 1625
-170 651 -479 1184 -956 1651 -167 163 -291 264 -474 386 -494 328 -1007 511
-1607 573 -158 16 -500 18 -653 4z"/>
</g>
</g></svg>
